<?xml version="1.0" encoding="UTF-8" standalone="no"?>
<svg width="224px" height="29px" viewBox="0 0 224 29" version="1.1" xmlns="http://www.w3.org/2000/svg" xmlns:xlink="http://www.w3.org/1999/xlink" xmlns:sketch="http://www.bohemiancoding.com/sketch/ns">
    <title>Artboard 1</title>
    <description>Created with Sketch (http://www.bohemiancoding.com/sketch)</description>
    <defs></defs>
    <g id="Page-1" stroke="none" stroke-width="1" fill="none" fill-rule="evenodd" sketch:type="MSPage">
        <g id="Artboard-1" sketch:type="MSArtboardGroup" transform="translate(-48.000000, -70.000000)" fill="#2B3033">
            <g id="logo-+-Tech-Blog" sketch:type="MSLayerGroup" transform="translate(48.000000, 70.000000)">
                <g id="logo" transform="translate(0.000000, 2.000000)" sketch:type="MSShapeGroup">
                    <path d="M45.797111,12.3728281 C45.797111,7.81162813 49.2602538,4.11422813 53.5310702,4.11422813 C57.8039681,4.11422813 61.2664171,7.81162813 61.2664171,12.3728281 C61.2664171,16.9326281 57.8039681,20.6314281 53.5310702,20.6314281 C49.2602538,20.6314281 45.797111,16.9326281 45.797111,12.3728281 M50.3544987,12.3728281 C50.3544987,10.0775281 51.7769477,8.21832812 53.5310702,8.21832812 C55.2865804,8.21832812 56.7090293,10.0775281 56.7090293,12.3728281 C56.7090293,14.6674281 55.2865804,16.5280281 53.5310702,16.5280281 C51.7769477,16.5280281 50.3544987,14.6674281 50.3544987,12.3728281" id="Fill-1"></path>
                    <path d="M83.6314783,12.3728281 C83.6314783,7.81162813 87.0946212,4.11422813 91.3661314,4.11422813 C95.6376416,4.11422813 99.1007844,7.81162813 99.1007844,12.3728281 C99.1007844,16.9326281 95.6376416,20.6314281 91.3661314,20.6314281 C87.0946212,20.6314281 83.6314783,16.9326281 83.6314783,12.3728281 M88.1888661,12.3728281 C88.1888661,10.0775281 89.6120089,8.21832812 91.3661314,8.21832812 C93.1202538,8.21832812 94.5427028,10.0775281 94.5427028,12.3728281 C94.5427028,14.6674281 93.1202538,16.5280281 91.3661314,16.5280281 C89.6120089,16.5280281 88.1888661,14.6674281 88.1888661,12.3728281" id="Fill-2"></path>
                    <path d="M0.117764031,0.049328125 L0.117764031,20.2135281 L4.58772321,20.2135281 L4.58772321,7.89142812 L14.0653967,20.3178281 L17.6541314,20.3178281 L17.6541314,0.127028125 L13.1605804,0.127028125 L13.1605804,11.7729281 L3.91396811,0.023428125 L0.117764031,0.049328125" id="Fill-3"></path>
                    <path d="M99.5642946,4.46492812 L98.7982538,4.46492812 L98.7982538,6.37032812 L98.5144579,6.37032812 L98.5144579,4.46492812 L97.749111,4.46492812 L97.749111,4.21012812 L99.5642946,4.21012812 L99.5642946,4.46492812" id="Fill-4"></path>
                    <path d="M101.757642,6.36962812 L101.472458,6.36962812 L101.472458,4.50832813 L100.877111,5.77462812 L100.708499,5.77462812 L100.116621,4.50832813 L100.116621,6.36962812 L99.8515599,6.36962812 L99.8515599,4.21012812 L100.238744,4.21012812 L100.809805,5.41202813 L101.362131,4.21012812 L101.757642,4.21012812 L101.757642,6.36962812" id="Fill-5"></path>
                    <path d="M17.917111,12.3728281 C17.917111,7.81162813 21.3802538,4.11422813 25.651764,4.11422813 C29.9239681,4.11422813 33.3857232,7.81162813 33.3857232,12.3728281 C33.3857232,16.9326281 29.9239681,20.6314281 25.651764,20.6314281 C21.3802538,20.6314281 17.917111,16.9326281 17.917111,12.3728281 M22.4744987,12.3728281 C22.4744987,10.0775281 23.8969477,8.21832812 25.651764,8.21832812 C27.4065804,8.21832812 28.8290293,10.0775281 28.8290293,12.3728281 C28.8290293,14.6674281 27.4065804,16.5280281 25.651764,16.5280281 C23.8969477,16.5280281 22.4744987,14.6674281 22.4744987,12.3728281" id="Fill-6"></path>
                    <path d="M35.8531518,4.19612812 L30.8128253,4.19612812 L38.0492742,20.2926281 L41.1793559,20.2926281 L48.2992334,4.19612812 L43.4011518,4.19612812 L39.6986212,13.3304281 L35.8531518,4.19612812" id="Fill-7"></path>
                    <path d="M60.9465395,16.0793281 C62.3703763,16.2613281 63.5471926,16.3124281 64.5054375,16.2928281 C65.3103355,16.2858281 67.1053967,16.2130281 67.0686212,15.4591281 C67.063764,15.3849281 67.0547436,14.9677281 66.0867844,14.5981281 C64.1439273,13.8673281 62.7020497,12.6507281 62.7020497,12.6507281 C61.7972334,11.7918281 61.2358865,10.6158281 61.2358865,9.31942813 C61.2358865,7.44202813 62.3898048,5.83062813 64.0898048,5.05432813 C64.0898048,5.05432813 66.0416824,3.99732813 71.0084579,4.36902813 L71.3408253,8.55152813 C69.9093559,8.44512813 68.6867436,8.43602813 67.7305804,8.50672813 C66.9263763,8.55572813 65.7169477,8.73702813 65.7134783,9.18712813 C65.7127844,9.26132813 65.6565804,9.48532813 66.6717232,9.96272813 C66.6717232,9.96272813 69.5200906,11.1555281 70.3895191,12.2531281 C71.1493151,13.0896281 71.6058865,14.1697281 71.6058865,15.3485281 C71.6058865,17.1125281 70.6011518,18.6462281 69.0711518,19.4813281 C69.0711518,19.4813281 66.2054375,21.1886281 61.0166212,20.2506281 L60.9465395,16.0793281" id="Fill-8"></path>
                    <path d="M83.7036416,20.0595281 C75.6858865,20.7847281 71.5476008,16.5273281 71.5476008,12.0984281 C71.5476008,7.67022812 75.4270702,3.70192812 83.6169069,4.13732812 L83.8535191,8.28342812 C77.6544171,7.84172812 76.0702946,10.0327281 76.0702946,12.1390281 C76.0702946,14.2439281 77.8271926,16.3495281 84.1123355,15.8504281 L83.7036416,20.0595281" id="Fill-9"></path>
                </g>
                <path d="M114.57,22 L116.01,22 L116.01,2.98 L122.61,2.98 L122.61,1.78 L107.97,1.78 L107.97,2.98 L114.57,2.98 L114.57,22 Z M133.83,14.65 C133.89,14.38 133.89,14.17 133.89,13.78 C133.89,11.71 132.99,7.27 128.28,7.27 C124.56,7.27 121.8,10.27 121.8,15.07 C121.8,19.3 124.38,22.3 128.52,22.3 C131.04,22.3 132.51,21.67 133.05,21.37 L132.69,20.26 C131.88,20.65 130.8,21.07 128.7,21.07 C125.73,21.07 123.21,19.24 123.21,14.65 C123.21,14.65 123.21,19.24 123.21,14.65 L133.83,14.65 Z M123.3,13.51 C123.57,11.29 124.92,8.47 128.1,8.47 C131.58,8.47 132.42,11.5 132.39,13.51 C132.39,13.51 132.42,11.5 132.39,13.51 L123.3,13.51 Z M147.09,20.23 C146.31,20.59 145.2,21.07 143.49,21.07 C140.16,21.07 137.79,18.61 137.79,14.83 C137.79,11.44 139.77,8.5 143.64,8.5 C145.23,8.5 146.34,8.92 147.03,9.34 L147.54,8.17 C147,7.78 145.53,7.27 143.76,7.27 C139.47,7.27 136.35,10.36 136.35,14.95 C136.35,19.27 139.11,22.3 143.25,22.3 C145.35,22.3 146.85,21.67 147.48,21.37 C147.48,21.37 146.85,21.67 147.48,21.37 L147.09,20.23 Z M150.93,22 L152.37,22 L152.37,13.21 C152.37,12.61 152.4,12.22 152.55,11.77 C153.18,10 154.86,8.53 156.9,8.53 C159.84,8.53 160.86,10.9 160.86,13.48 L160.86,22 L162.3,22 L162.3,13.33 C162.3,7.96 158.64,7.27 157.29,7.27 C156.21,7.27 155.22,7.6 154.38,8.11 C153.54,8.62 152.85,9.37 152.43,10.18 L152.37,10.18 L152.37,0.67 L150.93,0.67 L150.93,22 Z M173.88,22 C174.69,22.03 175.86,22.15 177.39,22.15 C180.27,22.15 182.46,21.58 183.81,20.23 C184.71,19.27 185.31,18.01 185.31,16.36 C185.31,13.06 182.73,11.59 181.02,11.2 L181.02,11.11 C183.03,10.42 184.5,8.68 184.5,6.61 C184.5,5.2 184.08,4.12 183.24,3.31 C182.13,2.17 180.48,1.63 177.96,1.63 C176.46,1.63 175.02,1.81 173.88,2.08 C173.88,2.08 175.02,1.81 173.88,2.08 L173.88,22 Z M175.32,3.04 C175.77,2.92 176.55,2.83 177.87,2.83 C180.87,2.83 183.03,3.85 183.03,6.7 C183.03,8.92 181.2,10.66 178.26,10.66 L175.32,10.66 L175.32,3.04 Z M175.32,11.83 L177.87,11.83 C181.08,11.83 183.81,13.21 183.81,16.39 C183.81,19.84 180.9,20.95 177.81,20.95 C176.73,20.95 175.92,20.92 175.32,20.8 C175.32,20.8 175.92,20.92 175.32,20.8 L175.32,11.83 Z M189.33,22 L190.77,22 L190.77,0.67 L189.33,0.67 L189.33,22 Z M201.12,22.33 C204.3,22.33 207.99,20.02 207.99,14.68 C207.99,10.27 205.29,7.27 201.3,7.27 C197.73,7.27 194.49,10 194.49,14.92 C194.49,19.42 197.37,22.33 201.09,22.33 C201.09,22.33 197.37,22.33 201.09,22.33 L201.12,22.33 Z M201.15,21.13 C198.21,21.13 195.93,18.43 195.93,14.83 C195.93,11.74 197.58,8.47 201.27,8.47 C205.08,8.47 206.55,12.1 206.55,14.74 C206.55,18.43 204.18,21.13 201.18,21.13 L201.15,21.13 Z M223.14,11.32 C223.14,9.82 223.17,8.68 223.26,7.6 L221.94,7.6 L221.85,10.03 L221.79,10.03 C221.19,8.83 219.78,7.27 216.93,7.27 C213.75,7.27 210.45,9.91 210.45,14.92 C210.45,18.85 213,22 216.63,22 C219.21,22 220.89,20.68 221.64,19.21 L221.7,19.21 L221.7,21.25 C221.7,25.51 219.51,27.07 216.48,27.07 C214.62,27.07 213.21,26.53 212.19,25.87 L211.68,27.01 C212.79,27.85 214.62,28.27 216.27,28.27 C217.89,28.27 219.84,27.82 221.16,26.56 C222.36,25.42 223.14,23.59 223.14,19.9 C223.14,19.9 223.14,23.59 223.14,19.9 L223.14,11.32 Z M221.7,16.03 C221.7,16.54 221.61,17.08 221.46,17.56 C220.71,19.6 218.91,20.8 216.99,20.8 C213.6,20.8 211.89,18.01 211.89,14.77 C211.89,10.96 213.99,8.47 217.05,8.47 C219.42,8.47 220.92,10.03 221.52,11.74 C221.67,12.16 221.7,12.61 221.7,13.15 C221.7,13.15 221.7,12.61 221.7,13.15 L221.7,16.03 Z M221.7,16.03" id="Tech-Blog" sketch:type="MSShapeGroup"></path>
            </g>
        </g>
    </g>
</svg>